<?xml version="1.0" encoding="UTF-8" standalone="no"?>
<!DOCTYPE svg PUBLIC "-//W3C//DTD SVG 1.1//EN"
 "http://www.w3.org/Graphics/SVG/1.1/DTD/svg11.dtd">
<!-- Generated by graphviz version 6.0.1 (20220911.1526)
 -->
<!-- Pages: 1 -->
<svg width="1084pt" height="332pt"
 viewBox="0.00 0.00 1084.49 332.00" xmlns="http://www.w3.org/2000/svg" xmlns:xlink="http://www.w3.org/1999/xlink">
<g id="graph0" class="graph" transform="scale(1 1) rotate(0) translate(4 328)">
<polygon fill="white" stroke="none" points="-4,4 -4,-328 1080.49,-328 1080.49,4 -4,4"/>
<!-- [root] local_file.pets (expand) -->
<g id="node1" class="node">
<title>[root] local_file.pets (expand)</title>
<polygon fill="none" stroke="black" points="575.86,-180 482.86,-180 482.86,-144 575.86,-144 575.86,-180"/>
<text text-anchor="middle" x="529.36" y="-158.3" font-family="Times,serif" font-size="14.00">local_file.pets</text>
</g>
<!-- [root] provider[&quot;registry.terraform.io/hashicorp/local&quot;] -->
<g id="node2" class="node">
<title>[root] provider[&quot;registry.terraform.io/hashicorp/local&quot;]</title>
<polygon fill="none" stroke="black" points="257.36,-108 0.14,-90 257.36,-72 514.59,-90 257.36,-108"/>
<text text-anchor="middle" x="257.36" y="-86.3" font-family="Times,serif" font-size="14.00">provider[&quot;registry.terraform.io/hashicorp/local&quot;]</text>
</g>
<!-- [root] local_file.pets (expand)&#45;&gt;[root] provider[&quot;registry.terraform.io/hashicorp/local&quot;] -->
<g id="edge1" class="edge">
<title>[root] local_file.pets (expand)&#45;&gt;[root] provider[&quot;registry.terraform.io/hashicorp/local&quot;]</title>
<path fill="none" stroke="black" d="M482.61,-148.97C437.56,-137.37 369.13,-119.76 319.51,-106.99"/>
<polygon fill="black" stroke="black" points="320.1,-103.53 309.54,-104.43 318.35,-110.31 320.1,-103.53"/>
</g>
<!-- [root] random_pet.my_pet (expand) -->
<g id="node4" class="node">
<title>[root] random_pet.my_pet (expand)</title>
<polygon fill="none" stroke="black" points="853.86,-108 726.86,-108 726.86,-72 853.86,-72 853.86,-108"/>
<text text-anchor="middle" x="790.36" y="-86.3" font-family="Times,serif" font-size="14.00">random_pet.my_pet</text>
</g>
<!-- [root] local_file.pets (expand)&#45;&gt;[root] random_pet.my_pet (expand) -->
<g id="edge2" class="edge">
<title>[root] local_file.pets (expand)&#45;&gt;[root] random_pet.my_pet (expand)</title>
<path fill="none" stroke="black" d="M576.07,-146.66C579.21,-145.75 582.33,-144.85 585.36,-144 628.76,-131.81 677.61,-119.14 716.74,-109.24"/>
<polygon fill="black" stroke="black" points="717.62,-112.63 726.46,-106.79 715.91,-105.84 717.62,-112.63"/>
</g>
<!-- [root] var.filename -->
<g id="node6" class="node">
<title>[root] var.filename</title>
<polygon fill="none" stroke="black" points="611.86,-108 532.86,-108 532.86,-72 617.86,-72 617.86,-102 611.86,-108"/>
<polyline fill="none" stroke="black" points="611.86,-108 611.86,-102"/>
<polyline fill="none" stroke="black" points="617.86,-102 611.86,-102"/>
<text text-anchor="middle" x="575.36" y="-86.3" font-family="Times,serif" font-size="14.00">var.filename</text>
</g>
<!-- [root] local_file.pets (expand)&#45;&gt;[root] var.filename -->
<g id="edge3" class="edge">
<title>[root] local_file.pets (expand)&#45;&gt;[root] var.filename</title>
<path fill="none" stroke="black" d="M540.73,-143.7C546.08,-135.56 552.57,-125.69 558.47,-116.7"/>
<polygon fill="black" stroke="black" points="561.56,-118.38 564.12,-108.1 555.71,-114.54 561.56,-118.38"/>
</g>
<!-- [root] provider[&quot;registry.terraform.io/hashicorp/random&quot;] -->
<g id="node3" class="node">
<title>[root] provider[&quot;registry.terraform.io/hashicorp/random&quot;]</title>
<polygon fill="none" stroke="black" points="420.36,-36 148.22,-18 420.36,0 692.51,-18 420.36,-36"/>
<text text-anchor="middle" x="420.36" y="-14.3" font-family="Times,serif" font-size="14.00">provider[&quot;registry.terraform.io/hashicorp/random&quot;]</text>
</g>
<!-- [root] random_pet.my_pet (expand)&#45;&gt;[root] provider[&quot;registry.terraform.io/hashicorp/random&quot;] -->
<g id="edge6" class="edge">
<title>[root] random_pet.my_pet (expand)&#45;&gt;[root] provider[&quot;registry.terraform.io/hashicorp/random&quot;]</title>
<path fill="none" stroke="black" d="M726.76,-76.97C663.18,-64.94 565.36,-46.43 497.41,-33.58"/>
<polygon fill="black" stroke="black" points="497.67,-30.06 487.19,-31.64 496.37,-36.94 497.67,-30.06"/>
</g>
<!-- [root] var.length -->
<g id="node7" class="node">
<title>[root] var.length</title>
<polygon fill="none" stroke="black" points="775.86,-36 710.86,-36 710.86,0 781.86,0 781.86,-30 775.86,-36"/>
<polyline fill="none" stroke="black" points="775.86,-36 775.86,-30"/>
<polyline fill="none" stroke="black" points="781.86,-30 775.86,-30"/>
<text text-anchor="middle" x="746.36" y="-14.3" font-family="Times,serif" font-size="14.00">var.length</text>
</g>
<!-- [root] random_pet.my_pet (expand)&#45;&gt;[root] var.length -->
<g id="edge7" class="edge">
<title>[root] random_pet.my_pet (expand)&#45;&gt;[root] var.length</title>
<path fill="none" stroke="black" d="M779.49,-71.7C774.37,-63.56 768.17,-53.69 762.52,-44.7"/>
<polygon fill="black" stroke="black" points="765.4,-42.71 757.12,-36.1 759.47,-46.43 765.4,-42.71"/>
</g>
<!-- [root] var.prefix -->
<g id="node8" class="node">
<title>[root] var.prefix</title>
<polygon fill="none" stroke="black" points="862.86,-36 799.86,-36 799.86,0 868.86,0 868.86,-30 862.86,-36"/>
<polyline fill="none" stroke="black" points="862.86,-36 862.86,-30"/>
<polyline fill="none" stroke="black" points="868.86,-30 862.86,-30"/>
<text text-anchor="middle" x="834.36" y="-14.3" font-family="Times,serif" font-size="14.00">var.prefix</text>
</g>
<!-- [root] random_pet.my_pet (expand)&#45;&gt;[root] var.prefix -->
<g id="edge8" class="edge">
<title>[root] random_pet.my_pet (expand)&#45;&gt;[root] var.prefix</title>
<path fill="none" stroke="black" d="M801.24,-71.7C806.36,-63.56 812.56,-53.69 818.21,-44.7"/>
<polygon fill="black" stroke="black" points="821.25,-46.43 823.61,-36.1 815.33,-42.71 821.25,-46.43"/>
</g>
<!-- [root] var.separator -->
<g id="node9" class="node">
<title>[root] var.separator</title>
<polygon fill="none" stroke="black" points="967.36,-36 887.36,-36 887.36,0 973.36,0 973.36,-30 967.36,-36"/>
<polyline fill="none" stroke="black" points="967.36,-36 967.36,-30"/>
<polyline fill="none" stroke="black" points="973.36,-30 967.36,-30"/>
<text text-anchor="middle" x="930.36" y="-14.3" font-family="Times,serif" font-size="14.00">var.separator</text>
</g>
<!-- [root] random_pet.my_pet (expand)&#45;&gt;[root] var.separator -->
<g id="edge9" class="edge">
<title>[root] random_pet.my_pet (expand)&#45;&gt;[root] var.separator</title>
<path fill="none" stroke="black" d="M824.61,-71.88C843.43,-62.47 866.95,-50.71 887.03,-40.67"/>
<polygon fill="black" stroke="black" points="888.61,-43.79 895.98,-36.19 885.47,-37.53 888.61,-43.79"/>
</g>
<!-- [root] var.content -->
<g id="node5" class="node">
<title>[root] var.content</title>
<polygon fill="none" stroke="black" points="286.86,-252 215.86,-252 215.86,-216 292.86,-216 292.86,-246 286.86,-252"/>
<polyline fill="none" stroke="black" points="286.86,-252 286.86,-246"/>
<polyline fill="none" stroke="black" points="292.86,-246 286.86,-246"/>
<text text-anchor="middle" x="254.36" y="-230.3" font-family="Times,serif" font-size="14.00">var.content</text>
</g>
<!-- [root] provider[&quot;registry.terraform.io/hashicorp/local&quot;] (close) -->
<g id="node10" class="node">
<title>[root] provider[&quot;registry.terraform.io/hashicorp/local&quot;] (close)</title>
<ellipse fill="none" stroke="black" cx="541.36" cy="-234" rx="230.96" ry="18"/>
<text text-anchor="middle" x="541.36" y="-230.3" font-family="Times,serif" font-size="14.00">[root] provider[&quot;registry.terraform.io/hashicorp/local&quot;] (close)</text>
</g>
<!-- [root] provider[&quot;registry.terraform.io/hashicorp/local&quot;] (close)&#45;&gt;[root] local_file.pets (expand) -->
<g id="edge4" class="edge">
<title>[root] provider[&quot;registry.terraform.io/hashicorp/local&quot;] (close)&#45;&gt;[root] local_file.pets (expand)</title>
<path fill="none" stroke="black" d="M538.4,-215.7C537.08,-207.98 535.49,-198.71 534.01,-190.11"/>
<polygon fill="black" stroke="black" points="537.44,-189.37 532.3,-180.1 530.54,-190.55 537.44,-189.37"/>
</g>
<!-- [root] provider[&quot;registry.terraform.io/hashicorp/random&quot;] (close) -->
<g id="node11" class="node">
<title>[root] provider[&quot;registry.terraform.io/hashicorp/random&quot;] (close)</title>
<ellipse fill="none" stroke="black" cx="835.36" cy="-162" rx="241.26" ry="18"/>
<text text-anchor="middle" x="835.36" y="-158.3" font-family="Times,serif" font-size="14.00">[root] provider[&quot;registry.terraform.io/hashicorp/random&quot;] (close)</text>
</g>
<!-- [root] provider[&quot;registry.terraform.io/hashicorp/random&quot;] (close)&#45;&gt;[root] random_pet.my_pet (expand) -->
<g id="edge5" class="edge">
<title>[root] provider[&quot;registry.terraform.io/hashicorp/random&quot;] (close)&#45;&gt;[root] random_pet.my_pet (expand)</title>
<path fill="none" stroke="black" d="M824.24,-143.7C819.01,-135.56 812.66,-125.69 806.89,-116.7"/>
<polygon fill="black" stroke="black" points="809.71,-114.62 801.36,-108.1 803.82,-118.41 809.71,-114.62"/>
</g>
<!-- [root] root -->
<g id="node12" class="node">
<title>[root] root</title>
<ellipse fill="none" stroke="black" cx="541.36" cy="-306" rx="47.39" ry="18"/>
<text text-anchor="middle" x="541.36" y="-302.3" font-family="Times,serif" font-size="14.00">[root] root</text>
</g>
<!-- [root] root&#45;&gt;[root] var.content -->
<g id="edge12" class="edge">
<title>[root] root&#45;&gt;[root] var.content</title>
<path fill="none" stroke="black" d="M499.33,-297.43C453.16,-288.74 376.73,-273.25 302.89,-252.27"/>
<polygon fill="black" stroke="black" points="303.54,-248.81 292.96,-249.41 301.6,-255.54 303.54,-248.81"/>
</g>
<!-- [root] root&#45;&gt;[root] provider[&quot;registry.terraform.io/hashicorp/local&quot;] (close) -->
<g id="edge10" class="edge">
<title>[root] root&#45;&gt;[root] provider[&quot;registry.terraform.io/hashicorp/local&quot;] (close)</title>
<path fill="none" stroke="black" d="M541.36,-287.7C541.36,-279.98 541.36,-270.71 541.36,-262.11"/>
<polygon fill="black" stroke="black" points="544.86,-262.1 541.36,-252.1 537.86,-262.1 544.86,-262.1"/>
</g>
<!-- [root] root&#45;&gt;[root] provider[&quot;registry.terraform.io/hashicorp/random&quot;] (close) -->
<g id="edge11" class="edge">
<title>[root] root&#45;&gt;[root] provider[&quot;registry.terraform.io/hashicorp/random&quot;] (close)</title>
<path fill="none" stroke="black" d="M589.08,-305.21C640.97,-303.16 724.12,-292.99 781.36,-252 802.83,-236.63 817.38,-209.82 825.92,-189.63"/>
<polygon fill="black" stroke="black" points="829.18,-190.91 829.63,-180.33 822.68,-188.32 829.18,-190.91"/>
</g>
</g>
</svg>
